<svg width="18" viewBox="0 0 18 17" xmlns="http://www.w3.org/2000/svg">
<path d="M9 2.17578C6.65625 2.17578 4.53125 3.42578 3.34375 5.42578C2.1875 7.45703 2.1875 9.92578 3.34375 11.9258C4.53125 13.957 6.65625 15.1758 9 15.1758C11.3125 15.1758 13.4375 13.957 14.625 11.9258C15.7812 9.92578 15.7812 7.45703 14.625 5.42578C13.4375 3.42578 11.3125 2.17578 9 2.17578ZM9 16.6758C6.125 16.6758 3.5 15.1758 2.0625 12.6758C0.625 10.207 0.625 7.17578 2.0625 4.67578C3.5 2.20703 6.125 0.675781 9 0.675781C11.8438 0.675781 14.4688 2.20703 15.9062 4.67578C17.3438 7.17578 17.3438 10.207 15.9062 12.6758C14.4688 15.1758 11.8438 16.6758 9 16.6758ZM9 4.67578C9.40625 4.67578 9.75 5.01953 9.75 5.42578V8.92578C9.75 9.36328 9.40625 9.67578 9 9.67578C8.5625 9.67578 8.25 9.36328 8.25 8.92578V5.42578C8.25 5.01953 8.5625 4.67578 9 4.67578ZM10 11.6758C10 12.2383 9.53125 12.6758 9 12.6758C8.4375 12.6758 8 12.2383 8 11.6758C8 11.1445 8.4375 10.6758 9 10.6758C9.53125 10.6758 10 11.1445 10 11.6758Z"/>
</svg>
